<svg xmlns="http://www.w3.org/2000/svg" xml:space="preserve" width="1000" height="388.906"><path fill="#0096FA" d="M287.46 130.753c-25.779-22.366-61.858-35.279-103.797-35.279C74.344 95.479-.001 179.281-.001 179.281l20.945 33.03s11.6.966 5.461-18.489c5.301-9.945 15.666-23.335 35.925-38.778v220.004c-8.735 2.447-20.281 7.042-12.414 14.86h60.195c7.946-7.889-4.57-12.642-12.193-14.86v-51.905s41.263 16.092 85.746 16.092c39.077 0 74.641-11.556 101.09-32.417 26.446-20.741 43.501-51.71 43.39-87.11.079-34.764-14.9-66.668-40.688-88.948l.004-.007zm-31.901 158.696c-18.289 17.938-44.89 29.276-75.568 29.255-34.234.021-63.046-6.565-82.073-15.87V137.781c20.877-14.74 54.734-23.817 82.073-23.763 33.223.03 59.3 12.5 76.946 31.414 17.601 19.032 27.211 44.317 27.301 73.704-.111 28.636-10.39 52.226-28.679 70.309v.004zm125.835-193.97h-12.262c-5.444 0-9.855 4.389-9.855 9.796V330.27c0 5.404 4.406 9.793 9.851 9.793h12.256c5.434 0 9.85-4.378 9.85-9.793v-225c0-5.401-4.416-9.79-9.855-9.79h.015zm320.342 0h-12.262c-5.441 0-9.853 4.389-9.853 9.796V330.27c0 5.404 4.405 9.793 9.853 9.793h12.262c5.441 0 9.853-4.378 9.853-9.793v-225c0-5.401-4.422-9.791-9.853-9.791zm288.178 0H978.51c-8.963 0-11.448 1.15-15.474 9.19-4.021 8-92.775 182.816-92.775 182.816S781.479 112.67 777.475 104.67c-4.041-8.04-6.51-9.19-15.473-9.19h-11.415c-8.388 0-12.924 3.706-8.192 13.146 4.741 9.446 114.059 222.715 114.059 222.715 2.87 5.398 8.127 8.724 13.808 8.724 5.67 0 10.916-3.325 13.797-8.724.185-.386 109.317-213.282 114.026-222.715 4.727-9.445.218-13.146-8.182-13.146h.011zM604.936 331.898c4.633 5.854 7.953 8.165 16.905 8.165h18.382c11.566 0 7.498-5.225 4.221-9.5-8.171-10.71-88.728-112.502-88.728-112.502s83.46-102.364 91.636-113.077c3.277-4.275 7.346-9.5-4.221-9.5h-18.377c-8.963 0-12.288 2.306-16.916 8.179-4.623 5.851-72.446 88.725-72.446 88.725s-67.886-82.863-72.514-88.72c-4.628-5.878-7.953-8.189-16.911-8.189h-18.378c-11.553 0-7.5 5.222-4.221 9.5 8.166 10.724 91.685 113.082 91.685 113.082s-82.99 101.804-91.158 112.502c-3.277 4.275-7.343 9.5 4.224 9.5h18.379c8.96 0 12.278-2.312 16.917-8.165 4.623-5.876 71.968-88.186 71.968-88.186l69.555 88.175v.011zM375.228 1.001c-7.316 0-13.401 2.422-18.278 7.262-4.861 4.832-7.3 10.889-7.3 18.156 0 7.254 2.444 13.312 7.305 18.148 4.877 4.834 10.962 7.262 18.278 7.262 7.3 0 13.39-2.428 18.256-7.268 4.872-4.831 7.311-10.889 7.311-18.148 0-7.262-2.444-13.319-7.311-18.156-4.872-4.828-10.962-7.256-18.261-7.256zm320.339 0c-7.298 0-13.39 2.422-18.251 7.262-4.878 4.832-7.309 10.889-7.309 18.156 0 7.254 2.426 13.312 7.303 18.148 4.867 4.834 10.943 7.262 18.257 7.262 7.319 0 13.396-2.428 18.278-7.268 4.861-4.831 7.303-10.889 7.303-18.148 0-7.262-2.453-13.319-7.303-18.156-4.882-4.828-10.958-7.256-18.278-7.256z"/></svg>